<svg height="512" viewBox="0 0 256 256" width="512" xmlns="http://www.w3.org/2000/svg"><path d="m4 17.952a11.457 11.457 0 0 1 11.622-11.622 11.768 11.768 0 0 1 11.833 11.622v220.109a11.769 11.769 0 0 1 -11.833 11.622 11.457 11.457 0 0 1 -11.622-11.622z" fill="#fcc24c"/><path d="m202.4 230.92a6.824 6.824 0 0 1 9.84-1.05c3.412 2.887 9.316 5.905 14.433 5.773a17.5 17.5 0 0 0 8.922-2.493c1.837-1.574 2.362-2.886 2.362-3.936a1.956 1.956 0 0 0 -.394-1.312c-.131-.393-.656-.918-1.706-1.574-1.836-1.312-5.773-2.756-10.5-3.674h-.131a50.311 50.311 0 0 1 -11.415-3.412 21.919 21.919 0 0 1 -9.054-7.61 15.9 15.9 0 0 1 -2.23-8.266c0-6.035 3.411-11.152 7.741-14.432a28.223 28.223 0 0 1 16.139-4.855c9.053 0 15.482 4.33 19.681 7.216a7.249 7.249 0 0 1 2.1 9.71 6.944 6.944 0 0 1 -9.709 1.837c-4.2-2.756-7.873-4.855-12.071-4.855a13.363 13.363 0 0 0 -7.873 2.362c-1.706 1.18-2.1 2.361-2.1 3.017a1.416 1.416 0 0 0 .262 1.05 3.536 3.536 0 0 0 1.444 1.312c1.705 1.181 5.117 2.362 9.578 3.149l.131.131h.131a47.248 47.248 0 0 1 12.2 3.8 20.391 20.391 0 0 1 9.316 7.742 16.994 16.994 0 0 1 2.503 8.664 18.929 18.929 0 0 1 -8.266 15.22 29.855 29.855 0 0 1 -17.057 5.249c-10.234-.132-18.107-4.855-23.355-9.054a7 7 0 0 1 -.922-9.709z" fill="#526faa"/><path d="m241.055 188.142a7.641 7.641 0 0 1 2.213 10.234 7.286 7.286 0 0 1 -6.777 3.2c.655.4 1.316.824 1.995 1.269a6.944 6.944 0 0 0 9.709-1.837 7.249 7.249 0 0 0 -2.1-9.71 60.274 60.274 0 0 0 -5.363-3.373z" fill="#34518c"/><path d="m249.507 220.555a20.386 20.386 0 0 0 -9.316-7.742 41.828 41.828 0 0 0 -6.233-2.391c.292.133.585.261.874.4a21.487 21.487 0 0 1 9.819 8.16 17.91 17.91 0 0 1 2.627 9.127c0 6.776-3.734 12.446-8.712 16.042a31.237 31.237 0 0 1 -14.784 5.358c.945.093 1.905.161 2.895.174a29.848 29.848 0 0 0 17.057-5.249 18.929 18.929 0 0 0 8.266-15.22 16.994 16.994 0 0 0 -2.493-8.659z" fill="#34518c"/><path d="m185.312 187.622c6.036-1.837 9.185-5.905 8.922-11.809-3.805-.919-7.479-4.068-7.479-8.791v-1.05a8.509 8.509 0 0 1 8.922-8.791c5.774 0 9.447 4.461 9.447 11.547v1.312c0 8.922-2.361 15.089-6.429 19.156-3.542 3.543-8.659 5.642-12.333 5.642-2.756 0-4.068-1.575-4.068-3.674 0-1.837 1.312-3.018 3.018-3.542z" fill="#526faa"/><path d="m109.465 203.76c.131-12.071 3.149-22.961 8.922-31.359 5.51-8.4 14.039-14.564 24.4-14.564 10.1 0 18.763 6.167 24.274 14.564 5.642 8.4 8.791 19.288 8.791 31.359 0 11.94-3.149 22.961-8.791 31.359-5.511 8.266-14.171 14.564-24.274 14.564-10.365 0-18.894-6.3-24.4-14.564-5.773-8.398-8.787-19.419-8.922-31.359zm51.827 0c0-9.447-2.625-17.713-6.3-23.355-3.805-5.511-8.135-8.135-12.2-8-4.067-.131-8.528 2.493-12.464 8-3.674 5.642-6.3 13.908-6.3 23.355 0 9.316 2.624 17.713 6.3 23.224 3.936 5.642 8.4 8.135 12.464 8.135s8.4-2.493 12.2-8.135c3.675-5.511 6.3-13.908 6.3-23.224z" fill="#526faa"/><path d="m103.1 218.455a31.359 31.359 0 1 1 -48.677-26.11 21.189 21.189 0 0 1 -4.33-12.99 21.649 21.649 0 0 1 43.3 0 21.189 21.189 0 0 1 -4.33 12.99 31.49 31.49 0 0 1 14.037 26.11zm-14.3 0a17.08 17.08 0 0 0 -16.931-17.055 16.993 16.993 0 1 0 0 33.983 16.967 16.967 0 0 0 16.931-16.928zm-24.4-39.1a7.349 7.349 0 1 0 14.7 0 7.349 7.349 0 0 0 -14.7 0z" fill="#526faa"/><path d="m11.12 238.061v-220.109a11.426 11.426 0 0 1 8.032-11.081 11.854 11.854 0 0 0 -3.53-.541 11.457 11.457 0 0 0 -11.622 11.622v220.109a11.458 11.458 0 0 0 11.622 11.622 11.855 11.855 0 0 0 3.53-.542 11.424 11.424 0 0 1 -8.032-11.08z" fill="#fce06a"/><g fill="#690589"><path d="m15.622 251.683a13.477 13.477 0 0 1 -13.622-13.622v-220.109a13.477 13.477 0 0 1 13.622-13.622 13.745 13.745 0 0 1 13.834 13.622v220.109a13.745 13.745 0 0 1 -13.834 13.622zm0-243.353a9.411 9.411 0 0 0 -9.622 9.622v220.109a9.411 9.411 0 0 0 9.622 9.622 9.741 9.741 0 0 0 9.834-9.622v-220.109a9.741 9.741 0 0 0 -9.834-9.622z"/><path d="m71.869 251.683a33.252 33.252 0 0 1 -20.231-59.822 23.649 23.649 0 1 1 40.193.011 33.241 33.241 0 0 1 -19.962 59.811zm0-91.846a19.673 19.673 0 0 0 -19.78 19.519 19.2 19.2 0 0 0 3.911 11.761 2 2 0 0 1 -.475 2.9 29.359 29.359 0 1 0 32.42-.008 2 2 0 0 1 -.463-2.888 19.2 19.2 0 0 0 3.908-11.761 19.541 19.541 0 0 0 -19.521-19.523zm0 77.544a18.993 18.993 0 1 1 0-37.983 18.992 18.992 0 0 1 0 37.983zm0-33.983a14.993 14.993 0 1 0 0 29.983 14.992 14.992 0 0 0 0-29.983zm0-14.564a9.489 9.489 0 0 1 -9.478-9.478 9.36 9.36 0 0 1 9.478-9.217 9.226 9.226 0 0 1 9.216 9.217 9.475 9.475 0 0 1 -9.216 9.478zm0-14.695a5.358 5.358 0 0 0 -5.478 5.217 5.484 5.484 0 0 0 5.478 5.478 5.423 5.423 0 0 0 5.216-5.478 5.286 5.286 0 0 0 -5.216-5.217z"/><path d="m142.792 251.683c-10.02 0-19.521-5.633-26.069-15.455-5.913-8.6-9.12-19.828-9.258-32.446v-.044c.137-12.616 3.344-23.843 9.274-32.469 6.426-9.794 15.93-15.432 26.053-15.432 10.038 0 19.5 5.638 25.945 15.467 5.961 8.873 9.118 20.1 9.118 32.456 0 12.177-3.242 23.71-9.13 32.474-6.544 9.816-15.998 15.449-25.933 15.449zm-31.327-47.923c.133 11.812 3.1 22.263 8.57 30.226 5.809 8.713 14.1 13.7 22.757 13.7 8.575 0 16.816-4.984 22.609-13.674 5.454-8.117 8.454-18.858 8.454-30.249 0-11.556-2.922-22.014-8.45-30.243-5.71-8.7-13.947-13.68-22.613-13.68-8.75 0-17.036 4.98-22.733 13.662-5.499 7.998-8.459 18.448-8.594 30.258zm31.327 33.359c-5.051 0-10.061-3.193-14.1-8.991-4.24-6.358-6.658-15.228-6.658-24.368 0-9.073 2.413-17.984 6.622-24.446 4.216-5.906 9.225-9.028 14.141-8.914 4.908-.126 9.808 3.019 13.848 8.869 4.238 6.507 6.652 15.418 6.652 24.491 0 9.14-2.419 18.01-6.634 24.333-5.037 7.461-10.323 9.026-13.871 9.026zm-.3-62.722c-3.5 0-7.231 2.536-10.541 7.171-3.748 5.759-5.925 13.873-5.925 22.192 0 8.247 2.229 16.515 5.962 22.115 3.251 4.659 7.095 7.244 10.8 7.244s7.343-2.509 10.543-7.253c3.727-5.591 5.957-13.859 5.957-22.106 0-8.319-2.178-16.433-5.974-22.263-3.228-4.673-6.943-7.2-10.462-7.1q-.065 0-.129 0c-.073.003-.151.003-.223.003z"/><path d="m186.362 196.838c-3.629 0-6.068-2.28-6.068-5.674 0-2.561 1.656-4.6 4.43-5.454h.006c4.7-1.43 7.214-4.262 7.493-8.429-3.924-1.493-7.468-5.024-7.468-10.257v-1.05a10.5 10.5 0 0 1 10.923-10.79c6.953 0 11.446 5.317 11.446 13.546v1.312c0 8.994-2.36 15.915-7.015 20.57-3.724 3.723-9.249 6.226-13.747 6.226zm-.465-7.3c-1.064.328-1.6.877-1.6 1.63 0 .828.246 1.674 2.068 1.674 2.914 0 7.6-1.737 10.919-5.056 3.878-3.878 5.843-9.847 5.843-17.742v-1.312c0-5.978-2.783-9.546-7.446-9.546-4.141 0-6.923 2.729-6.923 6.79v1.05c0 3.738 2.988 6.132 5.949 6.847a2 2 0 0 1 1.528 1.855c.299 6.781-3.372 11.685-10.335 13.806z"/><path d="m226.677 251.683c-8.6-.111-16.87-3.3-24.6-9.492a9.021 9.021 0 0 1 -1.244-12.5 8.635 8.635 0 0 1 6.029-3.389 8.813 8.813 0 0 1 6.693 2.059c3.1 2.622 8.529 5.41 13.074 5.288a15.527 15.527 0 0 0 7.787-2.112 3.761 3.761 0 0 0 1.549-2.318 1.232 1.232 0 0 0 -.006-.157c0 .036-.023 0-.052-.046a2 2 0 0 1 -.159-.286 5.014 5.014 0 0 0 -.943-.7c-.034-.021-.069-.044-.1-.068-1.37-.978-4.841-2.371-9.535-3.3a1.9 1.9 0 0 1 -.31-.035 51.943 51.943 0 0 1 -11.874-3.559 23.865 23.865 0 0 1 -9.879-8.316 17.865 17.865 0 0 1 -2.566-9.376c0-6.076 3.11-11.918 8.533-16.027a30.408 30.408 0 0 1 17.347-5.26c9.806 0 16.7 4.738 20.814 7.569a9.292 9.292 0 0 1 2.681 12.386 8.942 8.942 0 0 1 -12.549 2.461c-4.447-2.917-7.521-4.508-10.946-4.508a11.327 11.327 0 0 0 -6.654 1.947c-.026.02-.053.04-.081.059-.965.668-1.221 1.232-1.238 1.392v.042c.018.032.035.062.048.088a3.272 3.272 0 0 0 .651.477c.05.028.1.059.146.092 1.193.826 4.128 2 8.787 2.823a1.991 1.991 0 0 1 .556.186 48.829 48.829 0 0 1 12.431 3.919 22.493 22.493 0 0 1 10.156 8.5 18.906 18.906 0 0 1 2.783 9.7c0 6.529-3.315 12.667-9.095 16.842a31.748 31.748 0 0 1 -18.234 5.619zm-18.859-21.438a4.985 4.985 0 0 0 -.531.028 4.684 4.684 0 0 0 -3.287 1.847c-.017.023-.034.045-.052.067a5.024 5.024 0 0 0 .637 6.895c7 5.6 14.451 8.5 22.114 8.6a27.723 27.723 0 0 0 15.89-4.891 16.864 16.864 0 0 0 7.411-13.577 14.9 14.9 0 0 0 -2.208-7.63 18.6 18.6 0 0 0 -8.413-6.943 45.169 45.169 0 0 0 -11.575-3.634 1.988 1.988 0 0 1 -.915-.249c-4.348-.807-7.813-1.985-9.808-3.337a5.5 5.5 0 0 1 -2.1-1.984 3.307 3.307 0 0 1 -.54-2.071c0-.781.286-2.791 2.92-4.633a15.4 15.4 0 0 1 9.052-2.746c4.867 0 9.006 2.451 13.168 5.182a5.014 5.014 0 0 0 3.811.81 4.864 4.864 0 0 0 3.137-2.084 5.237 5.237 0 0 0 -1.545-6.935c-4-2.75-10.008-6.881-18.571-6.881a26.378 26.378 0 0 0 -15.008 4.5c-4.34 3.291-6.872 7.97-6.872 12.783a13.829 13.829 0 0 0 1.937 7.224 19.9 19.9 0 0 0 8.214 6.85 47.782 47.782 0 0 0 10.747 3.215 2.081 2.081 0 0 1 .314.035c4.834.941 9.022 2.424 11.225 3.974a5.877 5.877 0 0 1 2.374 2.307 3.877 3.877 0 0 1 .615 2.243c0 1.879-1.03 3.714-3.06 5.455a1.9 1.9 0 0 1 -.242.177 19.593 19.593 0 0 1 -9.982 2.8c-5.576.133-11.928-3.035-15.725-6.247a4.788 4.788 0 0 0 -3.132-1.15z"/></g><path d="m81.548 18.944a43.111 43.111 0 0 0 0 60.967l64.642 64.641 64.641-64.641a43.111 43.111 0 0 0 0-60.967 43.111 43.111 0 0 0 -60.967 0l-3.674 3.675-3.675-3.675a43.111 43.111 0 0 0 -60.967 0z" fill="#ff4397"/><path d="m210.831 18.944a43.023 43.023 0 0 0 -35.731-12.296 42.909 42.909 0 0 1 25.238 12.3c16.835 16.836 15.295 42.2 0 60.967l-54.148 64.637 64.641-64.641a43.109 43.109 0 0 0 0-60.967z" fill="#e12579"/><path d="m81.548 18.944a43.024 43.024 0 0 1 35.729-12.3 42.912 42.912 0 0 0 -25.239 12.3c-16.836 16.836-15.3 42.2 0 60.967l54.152 64.641-64.642-64.641a43.111 43.111 0 0 1 0-60.967z" fill="#ff61b5"/><path d="m146.19 146.552a1.99 1.99 0 0 1 -1.414-.586l-64.642-64.641a45.162 45.162 0 0 1 0-63.795 45.108 45.108 0 0 1 63.8 0l2.261 2.261 2.26-2.261a45.11 45.11 0 0 1 63.8 63.8l-64.655 64.636a1.99 1.99 0 0 1 -1.41.586zm-34.158-138.235a40.846 40.846 0 0 0 -29.07 12.041 41.159 41.159 0 0 0 0 58.139l63.228 63.227 63.227-63.224a41.11 41.11 0 1 0 -58.139-58.139l-3.678 3.672a2 2 0 0 1 -2.828 0l-3.672-3.674a40.841 40.841 0 0 0 -29.068-12.042z" fill="#690589"/><path d="m11.576 80.016a2 2 0 0 1 -2-2v-12a2 2 0 0 1 4 0v12a2 2 0 0 1 -2 2z" fill="#690589"/></svg>